<svg xmlns="http://www.w3.org/2000/svg" viewBox="0 0 294 353" width="294" height="353">
  <path d="M 108 344 L 109 345 L 115 345 L 116 344 L 117 345 L 117 352 L 142 352 L 142 345 L 143 344 L 164 344 L 165 345 L 165 352 L 189 352 L 190 351 L 190 346 L 191 345 L 193 345 L 194 346 L 194 352 L 197 352 L 197 346 L 198 345 L 213 345 L 215 342 L 132 341 L 131 342 L 108 342 Z M 0 334 L 0 342 L 17 342 L 18 341 L 17 339 L 13 336 L 7 335 L 6 334 L 4 334 L 3 335 L 1 335 Z M 214 352 L 256 352 L 255 348 L 252 345 L 250 345 L 249 344 L 250 342 L 250 338 L 249 336 L 246 334 L 244 334 L 239 328 L 231 328 L 226 334 L 224 334 L 220 338 L 220 343 L 216 347 Z M 40 352 L 106 352 L 106 350 L 105 349 L 104 344 L 101 341 L 97 339 L 98 337 L 97 333 L 94 330 L 90 330 L 88 328 L 88 326 L 86 322 L 83 320 L 76 320 L 74 321 L 70 317 L 62 317 L 58 319 L 54 323 L 54 327 L 53 328 L 51 328 L 48 330 L 46 334 L 46 341 L 48 344 L 46 346 L 43 347 Z M 0 298 L 0 304 L 1 305 L 0 307 L 0 310 L 1 311 L 0 313 L 0 316 L 1 317 L 0 319 L 0 322 L 1 323 L 0 325 L 0 329 L 2 332 L 4 331 L 9 331 L 10 332 L 12 332 L 12 299 L 9 299 L 8 298 Z M 263 296 L 263 306 L 262 308 L 265 311 L 265 313 L 268 314 L 274 320 L 274 321 L 280 326 L 280 296 L 278 296 L 277 295 L 265 295 Z M 244 245 L 243 246 L 243 276 L 244 277 L 244 279 L 243 280 L 244 282 L 243 284 L 243 289 L 244 290 L 244 297 L 254 298 L 255 299 L 255 301 L 259 304 L 259 249 L 254 247 L 245 246 Z M 253 290 L 255 292 L 255 294 L 254 295 L 252 294 L 252 291 Z M 246 290 L 247 289 L 248 291 L 247 292 Z M 252 287 L 252 285 L 254 284 L 255 286 L 253 288 Z M 246 284 L 247 283 L 248 284 L 247 285 Z M 253 277 L 255 279 L 253 282 L 252 281 L 252 278 Z M 246 278 L 247 277 L 248 278 L 247 279 Z M 252 273 L 254 272 L 255 274 L 253 275 Z M 246 271 L 247 270 L 248 272 L 247 273 Z M 252 269 L 252 267 L 254 266 L 255 268 L 253 270 Z M 246 264 L 247 263 L 249 264 L 248 265 Z M 252 260 L 253 259 L 255 262 L 253 263 L 252 262 Z M 252 254 L 254 253 L 255 254 L 255 256 L 253 257 L 252 256 Z M 241 245 L 237 247 L 233 247 L 225 250 L 225 300 L 226 302 L 230 302 L 230 301 L 234 298 L 241 297 Z M 230 293 L 232 292 L 233 293 L 233 295 L 231 296 L 230 295 Z M 236 291 L 237 289 L 239 290 L 237 292 Z M 230 287 L 230 285 L 231 284 L 233 286 L 231 288 Z M 235 284 L 236 283 L 238 284 L 237 285 Z M 230 279 L 232 278 L 233 280 L 231 281 Z M 236 278 L 237 277 L 238 279 L 237 280 Z M 236 271 L 237 270 L 238 272 L 237 273 Z M 230 272 L 231 270 L 233 271 L 231 273 Z M 230 267 L 230 265 L 232 264 L 233 266 L 231 268 Z M 235 264 L 236 263 L 238 264 L 237 265 Z M 230 261 L 231 259 L 233 260 L 231 262 Z M 230 254 L 232 253 L 233 255 L 231 256 Z M 236 253 L 237 252 L 238 254 L 237 255 Z M 230 242 L 230 246 L 235 244 L 239 244 L 240 243 L 245 243 L 246 244 L 254 245 L 254 241 L 247 238 L 239 238 L 238 239 L 232 240 Z M 242 216 L 242 225 L 241 226 L 241 229 L 236 232 L 234 236 L 235 237 L 240 235 L 244 235 L 245 236 L 250 237 L 250 233 L 243 228 L 243 216 Z M 155 23 L 154 25 L 154 36 L 150 44 L 142 51 L 134 55 L 127 55 L 126 54 L 125 55 L 125 57 L 128 63 L 130 65 L 127 67 L 123 67 L 124 71 L 130 78 L 129 79 L 129 90 L 123 94 L 113 93 L 113 96 L 115 100 L 121 108 L 121 114 L 118 117 L 116 116 L 112 116 L 113 122 L 120 130 L 120 138 L 119 139 L 111 139 L 110 140 L 113 146 L 116 150 L 119 152 L 119 161 L 116 163 L 109 162 L 109 165 L 115 174 L 118 176 L 118 185 L 115 187 L 110 187 L 108 186 L 107 188 L 111 195 L 117 200 L 117 210 L 113 212 L 106 212 L 106 214 L 108 218 L 116 226 L 116 236 L 111 239 L 105 238 L 104 240 L 109 247 L 115 252 L 115 263 L 113 265 L 110 265 L 109 266 L 108 265 L 104 265 L 103 267 L 106 272 L 114 279 L 114 290 L 111 292 L 103 292 L 102 293 L 105 299 L 113 305 L 113 317 L 111 318 L 109 316 L 107 316 L 103 311 L 99 310 L 96 306 L 97 305 L 97 300 L 92 295 L 93 287 L 91 284 L 91 280 L 87 275 L 88 274 L 87 273 L 87 270 L 83 264 L 83 262 L 81 258 L 79 258 L 75 267 L 72 271 L 72 273 L 71 274 L 71 279 L 68 283 L 68 286 L 66 289 L 66 294 L 67 296 L 65 297 L 61 302 L 61 305 L 62 306 L 62 311 L 61 313 L 62 314 L 63 313 L 71 313 L 76 317 L 77 316 L 83 316 L 87 318 L 89 321 L 94 325 L 94 326 L 97 327 L 100 330 L 100 332 L 101 333 L 104 332 L 107 329 L 133 329 L 134 328 L 151 328 L 152 327 L 154 329 L 152 334 L 102 335 L 101 336 L 105 339 L 123 339 L 124 338 L 189 338 L 190 339 L 217 339 L 217 335 L 221 331 L 224 330 L 227 326 L 231 324 L 239 324 L 243 326 L 246 331 L 248 331 L 252 334 L 254 338 L 253 342 L 258 346 L 259 348 L 259 352 L 289 352 L 289 350 L 287 346 L 284 343 L 280 341 L 280 334 L 272 327 L 272 323 L 271 321 L 267 318 L 263 318 L 261 316 L 261 312 L 258 308 L 253 307 L 249 302 L 245 300 L 239 300 L 232 304 L 230 307 L 226 306 L 221 308 L 219 310 L 218 314 L 216 316 L 214 315 L 207 315 L 204 318 L 198 318 L 197 319 L 196 318 L 196 305 L 198 304 L 206 295 L 206 292 L 197 292 L 195 290 L 195 279 L 201 274 L 205 268 L 205 265 L 201 266 L 200 265 L 196 265 L 194 263 L 194 252 L 203 244 L 205 240 L 204 238 L 198 239 L 197 238 L 195 238 L 193 236 L 193 226 L 199 221 L 203 214 L 203 211 L 201 211 L 200 212 L 194 212 L 192 210 L 192 200 L 199 194 L 202 189 L 202 187 L 201 186 L 199 186 L 198 187 L 193 187 L 191 185 L 191 176 L 197 171 L 201 163 L 200 162 L 192 163 L 190 161 L 190 153 L 196 147 L 199 141 L 199 139 L 190 139 L 189 138 L 189 131 L 193 127 L 198 118 L 197 116 L 190 117 L 188 115 L 188 108 L 195 99 L 196 93 L 194 93 L 193 94 L 186 94 L 180 90 L 180 77 L 182 76 L 187 69 L 187 67 L 183 67 L 180 65 L 185 57 L 185 55 L 184 54 L 183 55 L 175 55 L 166 50 L 157 41 L 157 38 L 156 37 L 156 25 Z M 155 329 L 156 328 L 203 329 L 206 332 L 210 334 L 209 335 L 157 334 L 155 332 L 156 331 Z M 156 324 L 158 319 L 165 319 L 166 320 L 175 320 L 176 321 L 195 322 L 197 323 L 199 326 L 198 327 L 183 327 L 182 326 L 163 326 L 162 325 L 157 325 Z M 155 324 L 154 325 L 149 325 L 148 326 L 125 326 L 124 327 L 110 327 L 109 326 L 111 323 L 116 323 L 117 322 L 122 322 L 123 321 L 134 321 L 135 320 L 142 320 L 143 319 L 153 319 Z M 157 298 L 159 297 L 160 298 L 165 298 L 166 299 L 171 299 L 172 300 L 191 301 L 192 302 L 192 318 L 191 319 L 185 319 L 184 318 L 182 318 L 181 317 L 182 316 L 182 306 L 181 304 L 176 303 L 175 302 L 174 303 L 172 303 L 170 305 L 170 316 L 169 317 L 162 317 L 161 316 L 158 316 L 157 315 Z M 154 298 L 154 315 L 153 316 L 141 317 L 140 316 L 140 304 L 137 302 L 133 302 L 132 303 L 130 303 L 128 305 L 128 317 L 127 318 L 124 318 L 123 319 L 117 319 L 116 318 L 116 303 L 118 301 L 135 300 L 136 299 L 143 299 L 144 298 L 150 298 L 151 297 L 153 297 Z M 157 270 L 159 269 L 160 270 L 170 271 L 171 272 L 178 272 L 179 273 L 191 274 L 192 275 L 192 290 L 193 292 L 192 293 L 189 293 L 188 292 L 180 292 L 179 291 L 172 291 L 171 290 L 167 290 L 166 289 L 159 288 L 157 286 Z M 171 276 L 170 277 L 170 287 L 171 288 L 178 288 L 179 289 L 181 289 L 181 278 L 179 276 L 177 276 L 176 275 Z M 154 270 L 154 286 L 152 288 L 150 288 L 149 289 L 144 289 L 143 290 L 138 290 L 137 291 L 131 291 L 130 292 L 122 292 L 121 293 L 117 293 L 116 292 L 117 290 L 117 275 L 118 274 L 132 273 L 133 272 L 145 271 L 146 270 L 151 270 L 152 269 Z M 129 278 L 129 289 L 131 289 L 132 288 L 140 288 L 140 278 L 139 276 L 137 275 L 133 275 Z M 157 243 L 158 242 L 161 242 L 166 244 L 171 244 L 172 245 L 189 247 L 191 249 L 191 263 L 192 265 L 191 266 L 189 266 L 188 265 L 175 264 L 174 263 L 169 263 L 168 262 L 164 262 L 163 261 L 158 260 L 157 259 Z M 170 250 L 170 260 L 171 261 L 181 262 L 181 251 L 177 248 L 173 248 Z M 154 243 L 154 259 L 153 260 L 148 261 L 147 262 L 143 262 L 142 263 L 136 263 L 135 264 L 128 264 L 127 265 L 120 265 L 119 266 L 117 266 L 116 265 L 118 263 L 118 248 L 119 247 L 122 247 L 123 246 L 130 246 L 131 245 L 136 245 L 137 244 L 142 244 L 143 243 L 149 243 L 150 242 L 153 242 Z M 138 248 L 133 248 L 129 251 L 129 262 L 131 262 L 132 261 L 139 261 L 140 260 L 140 250 Z M 157 216 L 158 215 L 159 216 L 163 216 L 164 217 L 168 217 L 169 218 L 188 220 L 190 222 L 190 237 L 192 238 L 191 239 L 188 239 L 187 238 L 174 237 L 173 236 L 169 236 L 168 235 L 160 234 L 157 231 Z M 170 222 L 169 224 L 169 229 L 170 230 L 170 232 L 169 233 L 171 234 L 178 234 L 179 235 L 180 234 L 180 224 L 176 221 L 172 221 Z M 154 216 L 154 232 L 151 234 L 147 234 L 146 235 L 142 235 L 141 236 L 130 237 L 129 238 L 122 238 L 121 239 L 118 239 L 117 238 L 119 236 L 119 222 L 121 220 L 134 219 L 135 218 L 146 217 L 147 216 L 151 216 L 152 215 Z M 133 221 L 130 224 L 130 234 L 141 233 L 141 224 L 140 222 L 138 221 Z M 157 191 L 158 190 L 161 190 L 162 191 L 166 191 L 167 192 L 171 192 L 172 193 L 177 193 L 178 194 L 182 194 L 183 195 L 188 195 L 189 196 L 189 210 L 191 212 L 190 213 L 188 213 L 187 212 L 181 212 L 180 211 L 175 211 L 174 210 L 170 210 L 169 209 L 165 209 L 164 208 L 159 207 L 157 205 Z M 170 197 L 170 200 L 169 201 L 170 207 L 178 208 L 179 209 L 179 198 L 176 196 L 172 196 Z M 154 191 L 154 205 L 152 207 L 146 208 L 145 209 L 141 209 L 140 210 L 136 210 L 135 211 L 121 212 L 120 213 L 119 212 L 120 210 L 120 196 L 121 195 L 123 195 L 124 194 L 132 194 L 137 192 L 142 192 L 143 191 L 148 191 L 149 190 L 153 190 Z M 130 199 L 130 208 L 141 207 L 141 199 L 139 196 L 134 196 Z M 120 187 L 121 186 L 122 187 L 121 188 Z M 157 166 L 158 165 L 159 166 L 163 166 L 168 168 L 178 169 L 179 170 L 185 170 L 188 172 L 188 186 L 189 187 L 187 188 L 186 187 L 175 186 L 174 185 L 170 185 L 169 184 L 159 182 L 157 180 Z M 170 172 L 169 173 L 169 182 L 179 184 L 179 174 L 175 171 Z M 154 166 L 154 180 L 153 181 L 148 183 L 144 183 L 139 185 L 135 185 L 134 186 L 128 186 L 127 187 L 122 187 L 121 186 L 121 172 L 124 170 L 129 170 L 130 169 L 135 169 L 136 168 L 141 168 L 142 167 L 146 167 L 147 166 L 151 166 L 152 165 Z M 132 172 L 131 174 L 131 183 L 141 182 L 141 173 L 139 171 L 134 171 Z M 157 142 L 159 141 L 162 143 L 166 143 L 167 144 L 171 144 L 172 145 L 186 147 L 187 148 L 187 161 L 188 162 L 187 163 L 182 163 L 181 162 L 176 162 L 175 161 L 171 161 L 170 160 L 166 160 L 165 159 L 159 158 L 157 156 Z M 170 148 L 168 150 L 168 157 L 169 158 L 178 159 L 178 150 L 175 148 Z M 154 142 L 154 155 L 151 158 L 146 159 L 145 160 L 142 160 L 141 161 L 129 162 L 128 163 L 123 163 L 122 162 L 122 148 L 123 147 L 143 144 L 144 143 L 147 143 L 152 141 Z M 134 148 L 132 150 L 132 159 L 141 158 L 141 149 L 140 148 Z M 157 120 L 159 119 L 164 121 L 169 121 L 170 122 L 184 124 L 186 126 L 186 139 L 185 140 L 182 140 L 181 139 L 172 138 L 171 137 L 168 137 L 167 136 L 159 134 L 157 132 Z M 170 125 L 168 128 L 168 134 L 169 135 L 178 136 L 178 127 L 175 125 Z M 154 120 L 154 132 L 152 134 L 147 135 L 146 136 L 143 136 L 142 137 L 134 138 L 133 139 L 128 139 L 127 140 L 124 140 L 123 139 L 123 126 L 125 124 L 130 124 L 131 123 L 135 123 L 136 122 L 140 122 L 141 121 L 145 121 L 146 120 L 150 120 L 151 119 L 153 119 Z M 138 124 L 137 125 L 134 125 L 132 127 L 132 136 L 141 134 L 141 126 Z M 157 97 L 158 96 L 159 97 L 169 99 L 170 100 L 184 102 L 185 103 L 185 115 L 186 117 L 184 118 L 183 117 L 169 115 L 168 114 L 165 114 L 164 113 L 159 112 L 157 110 Z M 169 103 L 168 104 L 168 112 L 177 114 L 177 105 L 172 102 Z M 154 97 L 154 110 L 152 112 L 145 113 L 140 115 L 135 115 L 134 114 L 135 113 L 142 112 L 142 104 L 138 102 L 133 105 L 133 114 L 135 115 L 134 116 L 130 116 L 129 117 L 125 117 L 124 116 L 124 103 L 125 102 L 135 101 L 139 99 L 148 98 L 152 96 Z M 157 70 L 158 69 L 162 69 L 166 71 L 176 73 L 177 74 L 177 88 L 176 89 L 174 89 L 173 88 L 159 86 L 157 84 Z M 167 75 L 166 76 L 166 82 L 167 83 L 170 83 L 170 76 L 169 75 Z M 153 68 L 154 69 L 154 84 L 151 86 L 147 86 L 142 88 L 133 89 L 132 88 L 132 74 L 135 72 L 138 72 L 139 71 L 147 70 L 148 69 Z M 141 75 L 140 76 L 140 83 L 143 83 L 144 82 L 144 75 Z M 156 57 L 158 56 L 165 59 L 173 60 L 177 62 L 174 64 L 173 63 L 169 63 L 168 62 L 161 61 L 157 59 Z M 155 57 L 149 61 L 146 61 L 141 63 L 136 63 L 135 64 L 134 63 L 136 60 L 139 60 L 144 58 L 148 58 L 152 56 L 154 56 Z M 155 56 L 156 55 L 157 56 L 156 57 Z M 165 11 L 158 11 L 155 4 L 152 11 L 144 11 L 144 12 L 150 16 L 150 19 L 148 24 L 155 20 L 162 24 L 159 17 L 162 15 Z" fill="#000000" fill-rule="evenodd" clip-rule="evenodd"/>
</svg>
